<svg width="24" height="20" viewBox="0 0 24 20" fill="none" xmlns="http://www.w3.org/2000/svg">
<path d="M23.953 2.57027C23.0545 2.96588 22.1026 3.22701 21.128 3.34527C22.1541 2.72852 22.9224 1.76132 23.291 0.62227C22.34 1.17727 21.286 1.58127 20.164 1.80627C19.4238 1.0147 18.4429 0.489692 17.3736 0.312772C16.3044 0.135852 15.2067 0.316921 14.2509 0.827861C13.2952 1.3388 12.5349 2.15102 12.0881 3.13839C11.6412 4.12577 11.533 5.23304 11.78 6.28827C7.69 6.09527 4.067 4.13027 1.64 1.16227C1.19879 1.91208 0.968664 2.7673 0.974 3.63727C0.974 5.34727 1.844 6.85027 3.162 7.73327C2.38086 7.70841 1.61697 7.49721 0.934 7.11727V7.17727C0.933557 8.31366 1.32627 9.41521 2.04551 10.295C2.76474 11.1748 3.76621 11.7787 4.88 12.0043C4.1583 12.1977 3.40241 12.2267 2.668 12.0893C2.98412 13.0673 3.59766 13.9222 4.42301 14.5348C5.24837 15.1473 6.24435 15.487 7.272 15.5063C5.53153 16.8722 3.38248 17.6136 1.17 17.6113C0.78 17.6113 0.391 17.5883 0 17.5443C2.25571 18.9886 4.87851 19.7553 7.557 19.7533C16.61 19.7533 21.555 12.2573 21.555 5.76827C21.555 5.55827 21.555 5.34827 21.54 5.13827C22.506 4.44313 23.3392 3.58009 24 2.59027L23.953 2.57027Z" fill="white"/>
</svg>
